<?xml version="1.0" standalone="no"?>
<!DOCTYPE svg PUBLIC "-//W3C//DTD SVG 20010904//EN"
 "http://www.w3.org/TR/2001/REC-SVG-20010904/DTD/svg10.dtd">
<svg version="1.0" xmlns="http://www.w3.org/2000/svg"
 width="423.000000pt" height="423.000000pt" viewBox="0 0 423.000000 423.000000"
 preserveAspectRatio="xMidYMid meet">
<metadata>
Created by potrace 1.11, written by Peter Selinger 2001-2013
</metadata>
<g transform="translate(0.000000,423.000000) scale(0.100000,-0.100000)"
fill="#000000" stroke="none">
<path d="M1559 3826 c-2 -2 -26 -7 -54 -10 -271 -32 -554 -141 -780 -302 -98
-70 -264 -223 -337 -311 -58 -69 -162 -231 -205 -317 -132 -270 -184 -503
-177 -801 2 -93 5 -182 8 -197 4 -29 19 -109 21 -118 1 -3 5 -21 9 -40 11 -50
46 -170 59 -200 5 -14 11 -30 12 -36 4 -16 111 -234 136 -274 57 -94 144 -203
239 -300 156 -159 288 -255 482 -350 54 -27 101 -49 103 -49 3 0 31 -9 63 -21
53 -21 208 -62 277 -75 94 -17 212 -20 710 -20 491 0 601 3 686 20 13 3 38 8
54 11 105 18 268 74 400 138 406 195 734 568 876 996 34 105 32 96 53 200 26
128 27 141 31 310 4 204 -11 324 -61 503 -108 384 -349 718 -689 953 -79 55
-231 135 -329 174 -75 29 -280 91 -294 88 -7 -1 -55 7 -107 19 -32 7 -1179 16
-1186 9z"/>
</g>
</svg>
