<svg width="32" height="32" viewBox="0 0 32 32" fill="none" xmlns="http://www.w3.org/2000/svg">
<path d="M5.62936 26.3706C6.92936 27.6706 8.63603 28.32 10.3427 28.32C12.0507 28.3186 13.7587 27.6706 15.0574 26.3706L18.828 22.5986L16.9427 20.7133L13.172 24.4853C11.6134 26.0413 9.07603 26.044 7.51469 24.4853C5.95603 22.9253 5.95603 20.388 7.51469 18.828L11.2867 15.0573L9.40136 13.172L5.62936 16.9426C3.03069 19.5413 3.03069 23.772 5.62936 26.3706ZM26.3707 15.0573C28.968 12.4586 28.968 8.22796 26.3707 5.6293C23.7707 3.0293 19.54 3.03196 16.9427 5.6293L13.172 9.4013L15.0574 11.2866L18.828 7.51463C20.388 5.95863 22.9254 5.95596 24.4854 7.51463C26.044 9.07463 26.044 11.612 24.4854 13.172L20.7134 16.9426L22.5987 18.828L26.3707 15.0573Z" fill="black"/>
<path d="M11.2849 22.6006L9.39933 20.7149L20.7142 9.40048L22.5998 11.2861L11.2849 22.6006Z" fill="black"/>
</svg>
