<svg width="32" height="32" viewBox="0 0 32 32" fill="none" xmlns="http://www.w3.org/2000/svg">
<path d="M13.3334 24C15.7947 24 18.0574 23.1533 19.8627 21.7493L25.724 27.6106L27.6094 25.7253L21.748 19.864C23.1534 18.0573 24 15.7946 24 13.3333C24 7.45196 19.2147 2.66663 13.3334 2.66663C7.45202 2.66663 2.66669 7.45196 2.66669 13.3333C2.66669 19.2146 7.45202 24 13.3334 24ZM13.3334 5.33329C17.7454 5.33329 21.3334 8.92129 21.3334 13.3333C21.3334 17.7453 17.7454 21.3333 13.3334 21.3333C8.92135 21.3333 5.33335 17.7453 5.33335 13.3333C5.33335 8.92129 8.92135 5.33329 13.3334 5.33329Z" fill="#3B6978"/>
<path d="M15.216 11.448C15.7213 11.9547 16 12.624 16 13.3333H18.6666C18.6666 11.9133 18.112 10.5747 17.1013 9.56266C15.0826 7.54666 11.5826 7.54666 9.56531 9.56266L11.448 11.4507C12.4613 10.44 14.208 10.4427 15.216 11.448Z" fill="#3B6978"/>
</svg>
