<svg width="66" height="67" viewBox="0 0 66 67" fill="none" xmlns="http://www.w3.org/2000/svg">
<path d="M54.9256 9.11108H19.296C16.273 9.11108 13.8145 11.5695 13.8145 14.5926V20.074H11.0738C8.05073 20.074 5.59229 22.5325 5.59229 25.5555V52.9629C5.59229 55.986 8.05073 58.4444 11.0738 58.4444H27.5182C30.5412 58.4444 32.9997 55.986 32.9997 52.9629H54.9256C57.9487 52.9629 60.4071 50.5045 60.4071 47.4815V14.5926C60.4071 11.5695 57.9487 9.11108 54.9256 9.11108ZM16.5552 25.5555H27.5182L27.51 50.2222H11.0738V25.5555H16.5552ZM32.9997 47.4815V25.5555C32.9997 22.5325 30.5412 20.074 27.5182 20.074H19.296V14.5926H49.4441V47.4815H32.9997Z" fill="#3B6978"/>
</svg>
