<svg width="67" height="67" viewBox="0 0 67 67" fill="none" xmlns="http://www.w3.org/2000/svg">
<path d="M56.1035 8.30371H12.0462C9.00902 8.30371 6.53906 10.7737 6.53906 13.8109V52.361C6.53906 55.3982 9.00902 57.8681 12.0462 57.8681H56.1035C59.1407 57.8681 61.6106 55.3982 61.6106 52.361V13.8109C61.6106 10.7737 59.1407 8.30371 56.1035 8.30371ZM12.0462 52.361V19.318H56.1035L56.109 52.361H12.0462Z" fill="#3B6978"/>
<path d="M27.0725 25.6318L16.865 35.8394L27.0725 46.0469L30.9661 42.1533L24.6521 35.8394L30.9661 29.5254L27.0725 25.6318ZM41.9804 25.6318L38.0868 29.5254L44.4008 35.8394L38.0868 42.1533L41.9804 46.0469L52.1879 35.8394L41.9804 25.6318Z" fill="#3B6978"/>
</svg>
